Coordinates
version=1
nRows=12
nColumns=24
inDegrees=yes

Units are S.I. units (second, meters, Newtons, ...)
Angles are in degrees.

endheader
time	pelvis_tilt	pelvis_list	pelvis_rotation	pelvis_tx	pelvis_ty	pelvis_tz	hip_flexion_r	hip_adduction_r	hip_rotation_r	knee_angle_r	ankle_angle_r	subtalar_angle_r	mtp_angle_r	hip_flexion_l	hip_adduction_l	hip_rotation_l	knee_angle_l	ankle_angle_l	subtalar_angle_l	mtp_angle_l	lumbar_extension	lumbar_bending	lumbar_rotation
      9.76000000	      0.83130685	      2.36606145	      9.53330505	     -0.23277355	      0.89030733	      0.17367939	      5.95673669	      2.15480254	     -3.16637697	    -13.27504025	     13.86695962	     -2.45991246	      0.00000000	     18.20799294	      4.39431525	      0.61044046	    -66.77821434	      0.41890205	     -5.47207042	      0.00000000	    -27.74369904	     -1.45823168	    -12.07821387
      9.77000000	      0.58183929	      2.65536764	      9.24034210	     -0.22256348	      0.89111823	      0.17420231	      5.17443883	      1.96697503	     -3.05925069	    -12.68953313	     14.14897161	     -2.23682397	      0.00000000	     19.44383486	      4.70347280	     -0.07445408	    -65.61258305	      1.70100376	     -6.15426117	      0.00000000	    -27.68854496	     -1.99532523	    -11.83429909
      9.78000000	      0.34450545	      2.96209192	      9.04459927	     -0.21242918	      0.89179628	      0.17451791	      4.39514933	      1.75034241	     -2.98033550	    -12.14045328	     14.42232608	     -2.13155386	      0.00000000	     20.57019109	      5.07612801	     -0.61603165	    -64.13959738	      2.87094491	     -6.69735511	      0.00000000	    -27.65946493	     -2.47904551	    -11.77232165
      9.79000000	      0.14136531	      3.25528878	      8.75348942	     -0.20226351	      0.89235415	      0.17489935	      3.62607003	      1.55142047	     -2.81328539	    -11.65818297	     14.71931217	     -1.99293368	      0.00000000	     21.55068876	      5.37539598	     -1.26593972	    -62.35111370	      3.85980252	     -7.22091433	      0.00000000	    -27.64888502	     -2.96729005	    -11.61949937
      9.80000000	     -0.08458537	      3.52250684	      8.58724773	     -0.19218135	      0.89271362	      0.17499475	      2.91970190	      1.35760649	     -2.73436599	    -11.24807204	     14.98538132	     -1.96920168	      0.00000000	     22.46038847	      5.71792192	     -1.72741167	    -60.27448749	      4.78315781	     -7.51653980	      0.00000000	    -27.61892437	     -3.33874800	    -11.61166121
      9.81000000	     -0.24336200	      3.77163784	      8.27606959	     -0.18206700	      0.89298808	      0.17522807	      2.19545879	      1.18998184	     -2.49797587	    -10.91329027	     15.29685980	     -1.88315579	      0.00000000	     23.17377016	      5.96312201	     -2.32285697	    -57.88109354	      5.55337858	     -7.76586796	      0.00000000	    -27.65403981	     -3.73921607	    -11.46092330
      9.82000000	     -0.47776532	      3.94637851	      8.14211298	     -0.17201508	      0.89295573	      0.17513644	      1.58571081	      1.07665902	     -2.41975707	    -10.63974125	     15.56862069	     -1.92748694	      0.00000000	     23.88247100	      6.23686309	     -2.64587253	    -55.23883182	      6.25153334	     -7.75999224	      0.00000000	    -27.59168981	     -3.97858134	    -11.47231575
      9.83000000	     -0.58563806	      4.11791833	      7.77603258	     -0.16191073	      0.89292663	      0.17525330	      0.89344473	      0.97855636	     -2.07066754	    -10.43705641	     15.88339973	     -1.90649116	      0.00000000	     24.30700775	      6.39439578	     -3.17322047	    -52.26793163	      6.80616521	     -7.74368555	      0.00000000	    -27.67571747	     -4.26378680	    -11.23076888
      9.84000000	     -0.75006774	      4.20590788	      7.50829521	     -0.15178820	      0.89257853	      0.17515755	      0.28643772	      0.95391926	     -1.78660485	    -10.27913972	     16.19990383	     -1.98376599	      0.00000000	     24.69486609	      6.52948450	     -3.52078336	    -49.06232912	      7.26853381	     -7.57083746	      0.00000000	    -27.65819195	     -4.41095980	    -11.13859506
      9.85000000	     -0.87094682	      4.24705954	      7.18317310	     -0.14161115	      0.89210956	      0.17502499	     -0.34193855	      0.97739127	     -1.40172807	    -10.15904368	     16.47612695	     -2.12875713	      0.00000000	     24.90237927	      6.62341750	     -3.78674898	    -45.57803648	      7.56938450	     -7.36420981	      0.00000000	    -27.67425232	     -4.51737671	    -10.86341521
      9.86000000	     -1.02641516	      4.22399314	      6.86463664	     -0.13130898	      0.89134899	      0.17481851	     -0.92549367	      1.06032718	     -0.99292475	    -10.06057631	     16.77687834	     -2.30464247	      0.00000000	     25.02872020	      6.66313874	     -3.99214989	    -41.85890627	      7.75083784	     -7.13111712	      0.00000000	    -27.60092385	     -4.54343289	    -10.67158769
      9.87000000	     -1.12610167	      4.14391715	      6.48403034	     -0.12089901	      0.89045768	      0.17460620	     -1.55951122	      1.20465282	     -0.46144725	     -9.97891220	     17.04353080	     -2.56109680	      0.00000000	     24.96083196	      6.64420198	     -4.10645478	    -37.88935695	      7.75765452	     -6.96846316	      0.00000000	    -27.56049532	     -4.52259628	    -10.32304040
